<?xml version="1.0" standalone="no"?><!-- Generator: Gravit.io --><svg xmlns="http://www.w3.org/2000/svg" xmlns:xlink="http://www.w3.org/1999/xlink" style="isolation:isolate" viewBox="0 0 25 25" width="25" height="25"><defs><clipPath id="_clipPath_VC8d0aZD3j1WZmqCyMTnnD9PtfPXLHqR"><rect width="25" height="25"/></clipPath></defs><g clip-path="url(#_clipPath_VC8d0aZD3j1WZmqCyMTnnD9PtfPXLHqR)"><rect width="25" height="25" style="fill:rgb(0,0,0)" fill-opacity="0"/><path d=" M 23.953 14.522 C 24.071 13.865 24.132 13.19 24.132 12.5 C 24.132 6.147 18.92 0.99 12.5 0.99 C 6.08 0.99 0.868 6.147 0.868 12.5 L 0.868 12.5 C 0.868 13.275 0.945 14.032 1.093 14.764 L 1.111 14.753 L 1.111 14.753 L 1.111 14.753 L 1.111 14.753 L 1.111 14.753 L 1.111 14.753 L 1.111 14.753 L 5.231 12.781 Q 4.539 9.76 5.538 7.32 L 5.538 7.32 Q 7.467 3.057 12.664 2.996 L 12.968 2.996 L 12.969 2.997 Q 18.131 3.074 20.052 7.32 L 20.052 7.32 Q 21.054 9.767 20.355 12.799 L 23.953 14.522 Z  M 23.875 14.919 C 23.632 16.039 23.225 17.099 22.679 18.072 L 19.564 15.097 C 19.703 14.84 19.826 14.563 19.93 14.263 Q 20.108 13.75 20.242 13.252 L 23.875 14.919 Z  M 22.454 18.455 C 21.818 19.494 21.02 20.425 20.096 21.215 L 17.616 17.053 C 18.255 16.722 18.863 16.201 19.338 15.476 L 22.454 18.455 Z  M 19.723 21.52 C 18.616 22.39 17.345 23.064 15.964 23.491 L 15.054 17.372 C 15.676 17.567 16.442 17.531 17.196 17.242 L 19.723 21.52 Z  M 15.55 23.61 C 14.578 23.871 13.555 24.01 12.5 24.01 C 11.634 24.01 10.79 23.917 9.978 23.739 L 10.98 17.178 C 11.469 16.895 11.806 16.425 11.872 15.785 Q 12.136 13.227 10.654 11.888 Q 11.689 10.954 12.664 10.974 L 12.664 10.974 L 12.664 10.974 L 12.926 10.974 L 12.926 10.974 L 12.968 10.974 L 12.968 10.974 Q 13.923 10.974 14.936 11.888 Q 13.454 13.227 13.718 15.785 C 13.782 16.405 14.1 16.865 14.564 17.151 L 15.55 23.61 Z  M 9.562 23.64 C 8.135 23.272 6.815 22.642 5.656 21.806 L 8.36 17.229 C 9.107 17.523 9.869 17.568 10.492 17.385 L 9.562 23.64 Z  M 5.273 21.517 C 4.292 20.746 3.44 19.822 2.753 18.781 L 6.236 15.452 C 6.706 16.177 7.307 16.701 7.942 17.036 L 5.273 21.517 Z  M 2.517 18.408 C 1.912 17.409 1.455 16.312 1.177 15.147 L 5.344 13.235 Q 5.479 13.741 5.66 14.263 C 5.761 14.552 5.879 14.821 6.011 15.07 L 2.517 18.408 Z " fill-rule="evenodd" fill="rgb(255,255,255)"/></g></svg>